<svg id="visual" viewBox="0 0 900 300" width="900" height="300" xmlns="http://www.w3.org/2000/svg" xmlns:xlink="http://www.w3.org/1999/xlink" version="1.1"><rect x="0" y="0" width="900" height="300" fill="#0c0c0c"></rect><path d="M0 211L21.5 214.8C43 218.7 86 226.3 128.8 225.2C171.7 224 214.3 214 257.2 202.5C300 191 343 178 385.8 180.2C428.7 182.3 471.3 199.7 514.2 201.5C557 203.3 600 189.7 642.8 185.5C685.7 181.3 728.3 186.7 771.2 196.7C814 206.7 857 221.3 878.5 228.7L900 236L900 0L878.5 0C857 0 814 0 771.2 0C728.3 0 685.7 0 642.8 0C600 0 557 0 514.2 0C471.3 0 428.7 0 385.8 0C343 0 300 0 257.2 0C214.3 0 171.7 0 128.8 0C86 0 43 0 21.5 0L0 0Z" fill="#4c343e"></path><path d="M0 198L21.5 192C43 186 86 174 128.8 171.7C171.7 169.3 214.3 176.7 257.2 174.8C300 173 343 162 385.8 160.3C428.7 158.7 471.3 166.3 514.2 165C557 163.7 600 153.3 642.8 156.7C685.7 160 728.3 177 771.2 174.7C814 172.3 857 150.7 878.5 139.8L900 129L900 0L878.5 0C857 0 814 0 771.2 0C728.3 0 685.7 0 642.8 0C600 0 557 0 514.2 0C471.3 0 428.7 0 385.8 0C343 0 300 0 257.2 0C214.3 0 171.7 0 128.8 0C86 0 43 0 21.5 0L0 0Z" fill="#6b4449"></path><path d="M0 108L21.5 105.2C43 102.3 86 96.7 128.8 101.3C171.7 106 214.3 121 257.2 126.3C300 131.7 343 127.3 385.8 128C428.7 128.7 471.3 134.3 514.2 132.8C557 131.3 600 122.7 642.8 118.5C685.7 114.3 728.3 114.7 771.2 114.2C814 113.7 857 112.3 878.5 111.7L900 111L900 0L878.5 0C857 0 814 0 771.2 0C728.3 0 685.7 0 642.8 0C600 0 557 0 514.2 0C471.3 0 428.7 0 385.8 0C343 0 300 0 257.2 0C214.3 0 171.7 0 128.8 0C86 0 43 0 21.5 0L0 0Z" fill="#87574f"></path><path d="M0 57L21.5 61.8C43 66.7 86 76.3 128.8 76C171.7 75.7 214.3 65.3 257.2 68.2C300 71 343 87 385.8 93.8C428.7 100.7 471.3 98.3 514.2 94.5C557 90.7 600 85.3 642.8 78.2C685.7 71 728.3 62 771.2 60.2C814 58.3 857 63.7 878.5 66.3L900 69L900 0L878.5 0C857 0 814 0 771.2 0C728.3 0 685.7 0 642.8 0C600 0 557 0 514.2 0C471.3 0 428.7 0 385.8 0C343 0 300 0 257.2 0C214.3 0 171.7 0 128.8 0C86 0 43 0 21.5 0L0 0Z" fill="#9e6e53"></path><path d="M0 59L21.5 55C43 51 86 43 128.8 44.5C171.7 46 214.3 57 257.2 58C300 59 343 50 385.8 45.2C428.7 40.3 471.3 39.7 514.2 41.3C557 43 600 47 642.8 49C685.7 51 728.3 51 771.2 48.2C814 45.3 857 39.7 878.5 36.8L900 34L900 0L878.5 0C857 0 814 0 771.2 0C728.3 0 685.7 0 642.8 0C600 0 557 0 514.2 0C471.3 0 428.7 0 385.8 0C343 0 300 0 257.2 0C214.3 0 171.7 0 128.8 0C86 0 43 0 21.5 0L0 0Z" fill="#ae8957"></path></svg>