<svg id="visual" viewBox="0 0 900 300" width="900" height="300" xmlns="http://www.w3.org/2000/svg" xmlns:xlink="http://www.w3.org/1999/xlink" version="1.1"><rect x="0" y="0" width="900" height="300" fill="#0c0c0c"></rect><path d="M0 177L25 178.8C50 180.7 100 184.3 150 181.3C200 178.3 250 168.7 300 152.8C350 137 400 115 450 96.3C500 77.7 550 62.3 600 74C650 85.7 700 124.3 750 145.2C800 166 850 169 875 170.5L900 172L900 0L875 0C850 0 800 0 750 0C700 0 650 0 600 0C550 0 500 0 450 0C400 0 350 0 300 0C250 0 200 0 150 0C100 0 50 0 25 0L0 0Z" fill="#ae8957" stroke-linecap="round" stroke-linejoin="miter"></path></svg>