<svg id="visual" viewBox="0 0 900 300" width="900" height="300" xmlns="http://www.w3.org/2000/svg" xmlns:xlink="http://www.w3.org/1999/xlink" version="1.1"><rect x="0" y="0" width="900" height="300" fill="#0c0c0c"></rect><path d="M0 43L21.5 42.3C43 41.7 86 40.3 128.8 50.5C171.7 60.7 214.3 82.3 257.2 103.7C300 125 343 146 385.8 132C428.7 118 471.3 69 514.2 51C557 33 600 46 642.8 65.8C685.7 85.7 728.3 112.3 771.2 119.7C814 127 857 115 878.5 109L900 103L900 0L878.5 0C857 0 814 0 771.2 0C728.3 0 685.7 0 642.8 0C600 0 557 0 514.2 0C471.3 0 428.7 0 385.8 0C343 0 300 0 257.2 0C214.3 0 171.7 0 128.8 0C86 0 43 0 21.5 0L0 0Z" fill="#ae8957" stroke-linecap="round" stroke-linejoin="miter"></path></svg>